<?xml version="1.0" standalone="no"?>
<!DOCTYPE svg PUBLIC "-//W3C//DTD SVG 20010904//EN"
 "http://www.w3.org/TR/2001/REC-SVG-20010904/DTD/svg10.dtd">
<svg version="1.0" xmlns="http://www.w3.org/2000/svg"
 width="1032.000000pt" height="1032.000000pt" viewBox="0 0 1032.000000 1032.000000"
 preserveAspectRatio="xMidYMid meet">
<metadata>
Created by potrace 1.11, written by Peter Selinger 2001-2013
</metadata>
<g transform="translate(0.000000,1032.000000) scale(0.100000,-0.100000)"
fill="#000000" stroke="none">
<path d="M3537 8294 c-1 -2 -44 -4 -95 -6 -51 -2 -92 -5 -92 -8 0 -3 -12 -5
-27 -6 -37 -1 -132 -12 -163 -19 -14 -3 -38 -7 -55 -10 -76 -13 -180 -37 -232
-53 -18 -6 -33 -9 -33 -7 0 2 -15 -2 -34 -10 -18 -8 -44 -16 -57 -19 -34 -6
-239 -80 -277 -100 -17 -9 -34 -16 -37 -16 -11 2 -255 -121 -342 -171 -80 -48
-224 -141 -248 -161 -5 -5 -35 -27 -65 -50 -30 -22 -57 -43 -60 -47 -3 -4 -15
-14 -28 -23 -85 -58 -349 -321 -429 -427 -10 -13 -25 -31 -33 -40 -8 -9 -43
-55 -78 -101 -34 -47 -67 -90 -72 -97 -6 -7 -10 -15 -10 -19 0 -3 -10 -20 -22
-37 -56 -78 -248 -433 -248 -458 0 -4 -10 -28 -22 -55 -12 -27 -23 -53 -25
-59 -1 -5 -16 -48 -32 -95 -55 -155 -121 -409 -136 -530 -8 -59 -16 -117 -20
-146 -27 -171 -23 -568 9 -779 1 -11 6 -45 11 -75 4 -30 9 -64 12 -75 3 -11 6
-27 7 -35 2 -8 6 -28 9 -45 4 -16 10 -40 12 -52 10 -49 14 -65 19 -81 13 -48
68 -229 73 -242 4 -8 7 -17 8 -20 1 -3 7 -18 14 -35 6 -16 24 -61 39 -100 57
-150 186 -393 291 -548 25 -38 51 -76 56 -85 6 -9 15 -22 20 -28 6 -7 21 -27
35 -45 116 -154 339 -391 455 -484 28 -22 57 -46 65 -54 8 -8 60 -48 115 -88
55 -40 105 -77 110 -81 16 -13 165 -102 230 -139 94 -52 251 -126 355 -168 52
-20 104 -41 115 -45 52 -22 304 -94 365 -106 37 -7 121 -23 150 -30 14 -3 41
-7 60 -9 36 -4 115 -14 160 -21 39 -5 278 -16 345 -14 53 1 84 1 128 0 32 -1
76 6 83 12 3 4 6 128 6 275 -1 391 3 351 -29 347 -40 -6 -267 -5 -343 0 -89 7
-197 22 -300 41 -154 29 -388 106 -524 171 -28 13 -55 24 -61 24 -6 0 -17 6
-23 13 -7 6 -16 12 -20 12 -20 0 -303 174 -361 221 -9 7 -52 42 -96 77 -112
90 -355 334 -355 358 0 4 -4 9 -8 11 -5 2 -28 30 -53 63 -24 33 -47 62 -51 63
-5 2 -8 7 -8 12 0 5 -22 41 -49 82 -42 64 -67 105 -122 208 -7 14 -14 31 -15
38 -1 8 -10 22 -18 31 -9 10 -16 24 -16 32 0 8 -8 26 -17 39 -10 14 -17 26
-15 28 1 1 -4 17 -11 35 -7 17 -24 64 -37 102 -12 39 -26 79 -31 90 -13 29
-57 208 -69 273 -5 31 -12 69 -15 84 -5 26 -10 68 -20 178 -8 86 -8 317 0 410
5 47 9 99 11 115 1 17 3 30 4 30 1 0 3 9 4 20 4 31 17 115 21 133 17 80 41
171 67 252 18 52 33 100 34 105 1 6 21 55 44 110 61 146 155 319 230 426 14
20 32 47 40 59 19 28 82 111 95 126 6 6 34 39 63 73 57 64 169 179 218 221 41
36 136 111 168 135 16 11 33 25 40 30 6 6 31 23 56 39 25 16 63 42 86 57 56
38 229 127 339 174 73 31 233 89 255 93 3 0 12 3 20 6 8 2 29 8 45 12 17 4 35
8 40 10 37 10 206 45 240 49 17 2 62 7 100 12 125 15 555 6 585 -12 3 -1 25
-6 50 -9 74 -10 101 -16 205 -42 103 -26 267 -78 344 -110 l44 -17 31 35 c17
19 38 44 46 56 44 58 188 211 310 326 72 69 81 55 -85 132 -104 48 -327 134
-348 133 -1 0 -28 9 -59 20 -32 11 -58 18 -58 16 0 -3 -12 0 -27 6 -16 6 -39
13 -53 15 -14 3 -32 7 -40 11 -8 3 -19 7 -25 7 -13 2 -94 17 -120 23 -11 2
-33 6 -50 8 -16 3 -46 7 -65 11 -19 3 -53 7 -75 9 -22 2 -60 6 -85 10 -45 7
-457 15 -463 9z"/>
<path d="M7487 8294 c-1 -1 -35 -5 -75 -8 -71 -6 -112 -11 -177 -21 -16 -3
-48 -7 -70 -10 -22 -3 -51 -8 -65 -12 -14 -3 -34 -7 -45 -9 -11 -1 -31 -6 -45
-9 -14 -3 -34 -8 -45 -10 -44 -10 -62 -15 -115 -30 -30 -9 -62 -18 -70 -20
-52 -13 -212 -71 -295 -106 -16 -7 -32 -13 -35 -14 -46 -15 -295 -140 -310
-155 -3 -3 -21 -14 -40 -24 -95 -52 -355 -232 -409 -285 -10 -9 -46 -41 -82
-71 -73 -63 -208 -198 -279 -279 -76 -88 -85 -98 -106 -126 -10 -15 -24 -32
-29 -39 -6 -6 -26 -33 -45 -61 -19 -27 -37 -52 -40 -55 -12 -11 -118 -179
-152 -240 -20 -36 -48 -86 -62 -112 -15 -27 -23 -48 -19 -48 4 0 4 -4 -2 -8
-50 -36 -234 -564 -260 -748 -3 -22 -8 -46 -11 -54 -3 -8 -8 -33 -10 -55 -3
-22 -7 -51 -10 -65 -3 -14 -7 -45 -10 -70 -3 -25 -8 -63 -11 -85 -3 -22 -7
-775 -9 -1673 l-3 -1634 27 7 c15 4 34 8 42 10 69 15 364 133 485 194 l70 36
1 1420 c1 781 4 1461 8 1510 10 133 14 166 21 205 4 19 8 46 10 60 3 14 7 36
10 50 3 14 8 39 11 55 6 34 52 202 61 225 3 8 7 22 9 31 7 31 96 246 136 324
49 97 139 249 150 253 4 2 8 8 8 13 0 6 5 15 10 22 6 7 29 37 51 67 22 30 48
65 57 78 71 97 285 312 403 404 68 53 170 128 175 128 3 0 20 11 37 24 18 13
64 41 102 62 39 21 72 42 73 46 2 4 8 8 13 8 5 0 45 18 89 39 44 22 80 37 80
34 0 -3 6 0 14 6 16 13 260 102 291 106 11 1 20 3 20 4 0 3 15 7 60 16 57 13
60 13 60 15 0 1 9 3 20 5 11 2 36 7 55 10 19 4 46 9 60 12 120 22 259 31 450
28 118 -2 226 -6 240 -9 14 -3 45 -8 70 -10 25 -3 70 -10 100 -16 30 -6 68
-13 84 -16 43 -7 172 -43 251 -69 87 -29 121 -42 230 -91 33 -15 62 -28 65
-29 21 -5 199 -104 247 -136 23 -16 43 -29 46 -29 4 0 3 45 -8 335 -3 99 -8
227 -10 284 -2 57 -7 107 -12 111 -30 29 -495 200 -543 200 -10 0 -21 4 -25 9
-3 5 -18 9 -33 9 -15 -1 -38 4 -50 11 -12 6 -22 10 -22 7 0 -2 -19 1 -42 6
-72 16 -143 29 -195 34 -17 1 -49 5 -70 8 -89 14 -169 18 -356 20 -109 1 -199
1 -200 0z"/>
<path d="M6245 6532 c-26 -7 -60 -21 -74 -30 -34 -21 -101 -84 -101 -95 0 -5
-10 -23 -22 -40 -34 -47 -36 -171 -6 -250 36 -92 132 -181 211 -196 18 -3 61
-5 97 -5 193 1 332 191 286 389 -2 11 -5 21 -6 23 -2 1 -3 5 -5 10 -17 61 -84
139 -148 170 -82 41 -150 48 -232 24z"/>
<path d="M6424 5622 c-135 -48 -214 -169 -209 -322 3 -102 32 -174 94 -233
155 -150 398 -107 499 88 23 44 26 62 26 150 1 91 -2 106 -28 158 -54 106
-145 166 -265 173 -46 3 -81 -1 -117 -14z"/>
<path d="M6310 4670 c-91 -33 -148 -83 -187 -167 -30 -65 -34 -83 -37 -158 -4
-125 64 -229 188 -285 82 -38 174 -36 258 4 137 65 212 237 172 393 -12 46
-78 153 -94 153 -4 0 -15 8 -26 18 -55 51 -191 72 -274 42z"/>
<path d="M5881 3807 c-6 -6 -11 -8 -11 -4 0 18 -100 -46 -139 -88 -104 -112
-118 -268 -35 -391 29 -43 124 -127 124 -109 0 3 13 -1 29 -9 79 -42 228 -16
307 52 119 102 152 274 77 401 -15 25 -26 49 -25 54 1 4 -2 7 -6 7 -5 0 -22
11 -38 25 -55 48 -113 69 -195 71 -46 2 -81 -2 -88 -9z"/>
</g>
</svg>
